<svg width="20" height="21" viewBox="0 0 20 21" fill="none" xmlns="http://www.w3.org/2000/svg">
<path fill-rule="evenodd" clip-rule="evenodd" d="M4.11108 2.9787C5.77576 1.74057 7.81982 1 10 1C15.4211 1 20 5.57889 20 11C20 13.5698 18.9709 15.9504 17.3112 17.7437L11.1111 10.8085V5.44446H8.88892V8.32294L4.11108 2.9787ZM1.98535 5.10217C0.743286 6.76849 0 8.81589 0 11C0 16.4211 4.57886 21 10 21C11.7952 21 13.498 20.4979 14.9729 19.6293L11.1111 15.3097V16.5555H8.88892V14.3333H10.2382L1.98535 5.10217Z" fill="black"/>
<line x1="2.74551" y1="1.3335" x2="18.8797" y2="19.3803" stroke="black" stroke-width="2"/>
</svg>
